Patient4_TMGait_0pt2_03_left_12_EMG.mot
version=1
nRows=30
nColumns=33
inDegrees=no
endheader
time	1LAddLong	2LGlutMax	3LGlutMed	4LIliopsoas	5LSemiMemb	6LBicFemLong	7LRecFem	8LVastMed	9LVastLat	10LGasMed	11LTibAnt	12lTibPost	13LPeroneusLong	14LSol	15LExtDigLong	16LFlexDigLong	17RAddLong	18RGlutMax	19RGlutMed	20RIliopsoas	21RSemiMemb	22RBicFemLong	23RRecFem	24RVastMed	25RVastLat	26RGasMed	27RTibAnt	28RTibPost	29RPeroneusLong	30RSol	31RExtDigLong	32RFlexDigLong
24.48	-0.000305	0.029602	0.033112	0.036011	0.019379	0.031586	-0.03067	-0.005188	-0.007629	0.000458	-0.002594	0.00946	0.006866	0.03418	-0.033569	-0.006409	-0.11017	-0.10956	0.000153	-0.005035	-0.12207	0.13657	0.074921	-0.085449	-0.33508	0	0.26184	-0.001373	0.092163	0.06073	0.015411	-0.003662
24.481	-0.001373	0.037689	0.065613	0.007172	0.014801	0.01709	-0.070038	-0.002899	-0.005798	-0.008392	0.017853	0.001984	0.023193	0.021515	-0.068665	0.015564	-0.12207	-0.061188	0.069885	0.18036	0.018158	0.037079	-0.004883	0.65628	-0.48981	0.007019	0.04425	-0.006561	0.067444	0.06897	0.022583	-0.004272
24.482	0.004272	0.02243	0.022736	0.003662	0.019989	0.033112	-0.097809	-0.005951	0.010529	0.010071	-0.006409	0.003357	0.008392	-0.000916	-0.049438	-0.006409	-0.097351	-0.12558	-0.22034	0.40695	-0.00824	0.079498	0.11017	0.89142	-0.52124	0.000916	0.08606	-0.007477	0.02655	-0.019989	0.021515	-0.002136
24.483	0.007477	0.029602	0.018921	0.054474	0.029297	0.010223	-0.11124	-0.003052	0.011597	0.011597	-0.021362	0.012512	0.016327	0.00824	-0.056763	0.003357	-0.07782	-0.099335	-0.43091	0.3894	-0.072327	0.17639	-0.02243	0.76965	-0.24399	-0.008392	-0.19287	-0.005188	0.021362	-0.009155	0.013733	-0.007935
24.484	0.017853	0.018311	0.089264	0.036316	0.029449	0.001221	-0.12329	-0.004578	0.007629	0.024719	-0.003967	0.006409	0.011749	0.001984	-0.045013	0.006104	-0.062408	-0.098419	0.40588	0.26916	-0.38391	0.23086	-0.026703	0.15808	0	-0.001984	-0.52673	-0.005798	0.085754	0.030212	0.010223	-0.010529
24.485	0.021515	0.053253	0.14404	0.048676	0.02655	-0.014343	-0.12283	-0.003662	0.006866	0.004578	0.007324	0.010376	0.010071	0.006866	-0.032349	0.010223	-0.002594	-0.007019	1.102	0.11917	-0.75363	0.29251	-0.002136	-0.10254	0.009766	-0.000458	-0.31509	-0.003815	0.018616	0.047607	0.011749	-0.016785
24.486	0.013123	0.067596	0.051727	0.035248	0.025787	-0.010071	-0.11063	-0.005035	0.011292	-0.009766	-0.058746	0.007172	0.044556	0.042267	0.037842	0.007935	0.031738	0.034485	0.7399	0.023804	-0.69702	0.23377	0.053711	-0.504	0.28397	-0.003052	-0.16373	-0.004425	-0.026093	0.075226	0.014648	-0.014648
24.487	0.011292	0.045776	-0.016937	0.022583	0.020294	0.001221	-0.089569	-0.002899	0.006409	0.000153	0.014191	0.001373	0.011139	0.068207	0.14145	0.014496	0.011597	-0.086975	-0.046234	-0.11292	0.28656	0.13275	-0.063629	-0.42236	0.43793	-0.001678	-0.11322	0.002594	-0.027161	0.025482	0.016785	-0.015106
24.488	0.000305	0.049133	-0.086517	0.01358	0.023804	0.016937	-0.056	-0.008087	0.003662	0.018463	0.033722	0.012665	0.020294	0.089722	0.17227	0.007629	-0.032043	-0.13062	0.1413	-0.086365	0.28748	0.16388	-0.33035	0.14542	0.34759	-0.003662	-0.084229	-0.005493	-0.049896	-0.014801	0.009613	-0.015869
24.489	0.001678	0.053101	-0.03067	-0.021057	0.019684	0.031281	-0.080261	-0.005493	0.004578	-0.018005	0.068512	0.006714	0.04303	0.09903	0.40161	0.013123	-0.019379	-0.08316	0.16052	-0.10346	-0.059357	0.17242	-0.51804	0.30411	0.10651	0.006409	-0.031738	-0.006256	-0.087738	0.035095	0.011139	-0.015717
24.49	0.000153	0.077972	0.026398	-0.032196	0.020752	0.019531	-0.070038	-0.005798	-0.001373	-0.023956	0.041809	0.005188	0.018311	0.11078	0.11215	0.018616	-0.006409	-0.065155	-0.19226	-0.30228	0.22049	0.11978	-0.45715	0.54962	-0.03418	-0.006714	0.005341	-0.005035	-0.1709	0.041656	0.015564	-0.011292
24.491	0.002899	0.1088	0.092773	-0.026855	0.022583	0.005341	-0.043793	-0.003967	-0.001678	0.004578	0.005951	0.014343	-0.002747	0.06485	-0.075378	0.004272	-0.012512	-0.042877	-0.54779	-0.36194	0.5513	0.095673	-0.52506	0.6192	-0.098114	0.00824	0.007782	-0.004883	-0.21668	0.025787	0.016174	-0.002136
24.492	-0.001373	0.057983	0.040436	-0.016022	0.02182	0.00061	0.038757	-0.006561	0.002594	0.027313	0.064545	0.011292	-0.025177	-0.006561	-0.10101	0.004272	-0.037537	-0.019989	-0.76096	-0.26245	0.46204	0.09903	-0.12756	0.19913	-0.46845	0.006866	0.02243	-0.006409	-0.14908	-0.001526	0.008698	-0.004883
24.493	0.003052	0.028839	-0.00885	0.008087	0.020905	0.010834	0.04364	-0.000305	0.009155	0.030823	0.12238	0.014648	-0.030365	-0.062256	-0.08194	0.014496	-0.013123	-0.03067	-0.80276	-0.039368	0.31754	0.047455	0.34576	-0.21255	-0.82794	-0.012512	0.035858	-0.009003	-0.15442	-0.15533	0.009003	0.000153
24.494	0.007019	0.005646	0.008698	0.032806	0.027008	-0.000916	0.044098	0.002747	0	0.02243	0.079956	0.001068	-0.018616	-0.054474	-0.17059	0.008392	0.026245	-0.005035	0.47058	0.15991	0.12177	-0.008392	0.30762	-0.47028	-0.82306	-0.011597	-0.016327	-0.006409	-0.017548	-0.27283	0.014038	0.004578
24.495	0.00473	-0.011139	0.032806	0.012512	0.025177	0.001373	0.028992	-0.001373	0.001221	-0.035095	-0.023651	0.016632	0.053406	0.009308	0.060272	0.008392	0.037231	0.013733	0.8847	0.23697	0.011139	-0.13534	0.13779	-0.34134	-0.4425	-0.008392	-0.20493	-0.007324	0.055695	-0.43076	0.013275	0.001984
24.496	0.00061	-0.018311	-0.011597	-0.001831	0.018616	0.003052	0.009308	-0.006561	-0.005798	-0.009918	-0.11688	0.007477	0.076141	0.013123	0.032043	0.013885	0.062256	0.078125	0.21515	0.25207	-0.00412	-0.16068	0.12009	-0.45227	-0.027161	-0.018921	-0.29541	-0.007477	-0.035553	-0.41031	0.009613	-0.003662
24.497	0.006256	-0.035248	-0.044098	-0.015869	0.019684	0.007629	0.04425	-0.010223	-0.010681	0.016937	-0.087128	0.00824	0.014648	0.010681	0.027771	-0.00473	0.05722	0.1059	-0.18143	0.036621	-0.030975	-0.11169	-0.079041	-0.61935	0.12863	-0.018005	0.014801	-0.00885	-0.17563	-0.32501	0.007782	-0.009918
24.498	-0.002594	-0.043335	-0.03891	0.002136	0.019379	0.007019	0.11063	-0.009308	-0.011902	0.012665	0.018616	0.005798	-0.027161	0.038605	0.002136	0.00351	0.04303	0.04776	-0.0354	-0.067749	0.098724	0.022736	-0.33951	-0.89554	0.22003	-0.013123	0.25253	-0.011139	-0.13702	-0.067749	0.007019	-0.002747
24.499	0.001984	-0.060577	-0.00824	-0.001678	0.018768	-0.001678	0.14557	-0.00824	-0.019226	0.008087	0.055237	0.006256	-0.016327	0.045319	-0.076294	0.014038	0.003052	-0.00824	0.22186	0.047455	0.35431	0.04715	-0.3804	-0.61081	0.30899	-0.002441	0.43121	-0.005341	-0.040741	0.024261	-0.000916	-0.001831
24.5	0.005035	-0.062714	-0.023956	0.015869	0.008545	-0.004883	0.1326	-0.004425	-0.023804	-0.007629	0.036926	0.004272	-0.015869	0.084229	-0.10162	0.011902	0.051117	0.012817	-0.16403	0.096436	0.34058	0.04776	-0.39215	-0.12131	0.3212	0.001831	0.33997	-0.012817	-0.028229	0.14236	0.005798	-0.008087
24.501	0.015106	-0.061188	-0.04776	0.023651	0.021667	-0.019226	0.14801	-0.008545	-0.014648	0.007172	-0.035553	0.005341	0.030975	0.040588	-0.16953	-0.012817	0.12009	-0.009003	-0.43289	0.023499	-0.31799	0.015869	-0.09552	0.18082	0.22781	-0.01358	0.19501	-0.005188	-0.14572	0.24048	0.009003	-0.009308
24.502	0.004883	-0.045929	-0.005646	0.020905	0.015717	-0.005341	0.11276	-0.001221	-0.015106	0.014801	0.014954	0.003204	-0.001068	-0.003967	-0.21255	0.007324	0.11047	0.042419	-0.4541	0.038452	-0.52307	-0.032959	0.030212	0.41367	0.11353	-0.010223	0.088806	-0.005188	-0.16724	0.34042	0.008392	0.003204
24.503	-0.001068	-0.049591	0.087891	-0.009766	0.018768	-0.007935	0.065155	0.002594	-0.016785	0.015259	-0.071869	0.009308	-0.02533	-0.035553	-0.11673	0.005341	0.11246	0.092621	-0.2565	0.006866	-0.34515	-0.056458	0.036163	0.64819	0.13199	0.00885	0.39658	-0.003204	-0.038605	0.024109	0.005341	-0.003357
24.504	0.003967	-0.075684	0.12344	-0.015717	0.014801	-0.002594	-0.088043	-0.008392	-0.010376	0.008698	-0.1413	0.01358	-0.010834	-0.04303	0.027618	0.012665	0.1001	0.077667	-0.1384	-0.017548	0.16342	-0.12665	-0.097809	1.1195	0.16022	0.016022	0.85327	-0.006409	-0.19211	-0.21057	0.00351	-0.008698
24.505	-0.003357	-0.071716	0.026703	0.005798	0.016327	0.006256	-0.19898	0.001221	0.013733	-0.019379	-0.24399	0.005341	0.039215	0.012817	0.06424	0.019379	0.09552	0.13626	0.34897	-0.021515	0.27298	-0.15961	-0.00946	1.078	0.056305	0.005951	0.45914	-0.006714	-0.081329	-0.14801	0.005798	-0.011749
24.506	0.005188	-0.080872	0.002899	0.026703	0.021973	0.015564	-0.34317	-0.006409	0.014343	-0.030365	-0.13443	0.009766	0.076599	-0.003967	0.076447	0.007019	0.12665	0.07782	-0.05127	-0.000153	-0.13626	-0.11017	0.25467	0.1442	-0.15442	0.008698	0.19806	-0.003357	-0.024872	-0.19089	0.00473	-0.003052
24.507	0.006104	-0.047913	-0.018005	0.030975	0.025482	0.019989	-0.41672	-0.005341	0.019836	-0.008087	0.23163	0.005188	0.033875	-0.019989	0.2623	0.01236	0.11078	0.08667	-0.67963	0.032043	-0.21271	-0.16266	0.40787	-0.40619	-0.20615	0.007019	-0.81482	-0.002899	0.12833	-0.12817	0.000305	0.001526
24.508	0.004272	-0.040283	0.003204	0.009613	0.017395	0.016632	-0.33646	-0.01358	0.029907	-0.022888	0.22736	0.006409	0.005188	-0.02655	0.06012	0.014191	0.10956	0.084229	-0.77759	0.007324	-0.20142	-0.14618	0.93704	-0.39673	-0.2385	0.002594	-1.5916	-0.006104	0.21118	-0.066376	0.00061	0.002747
24.509	-0.002136	-0.032501	-0.022278	-0.02121	0.007172	0.019379	-0.22964	-0.020142	0.021362	-0.008698	0.046082	0.022583	-0.008392	0.022888	0.008392	0.009613	0.088654	0.077972	0.29312	-0.071259	-0.30319	-0.022125	1.0138	-0.42313	-0.26779	0.000458	-0.6958	-0.007324	0.052338	0.02594	0.003357	-0.002441
